<svg width="49" height="48" viewBox="0 0 49 48" fill="none" xmlns="http://www.w3.org/2000/svg">
<g id="google">
<g id="&#240;&#159;&#166;&#134; icon &#34;google&#34;">
<path id="Vector" d="M48.3284 19.2996H46.3952V19.2H24.7952V28.8H38.3588C36.38 34.3884 31.0628 38.4 24.7952 38.4C16.8428 38.4 10.3952 31.9524 10.3952 24C10.3952 16.0476 16.8428 9.6 24.7952 9.6C28.466 9.6 31.8056 10.9848 34.3484 13.2468L41.1368 6.4584C36.8504 2.4636 31.1168 0 24.7952 0C11.5412 0 0.795166 10.746 0.795166 24C0.795166 37.254 11.5412 48 24.7952 48C38.0492 48 48.7952 37.254 48.7952 24C48.7952 22.3908 48.6296 20.82 48.3284 19.2996Z" fill="#FFC107"/>
<path id="Vector_2" d="M3.5625 12.8292L11.4477 18.612C13.5813 13.3296 18.7485 9.6 24.7953 9.6C28.4661 9.6 31.8057 10.9848 34.3485 13.2468L41.1369 6.4584C36.8505 2.4636 31.1169 0 24.7953 0C15.5769 0 7.5825 5.2044 3.5625 12.8292Z" fill="#FF3D00"/>
<path id="Vector_3" d="M24.7952 48C30.9944 48 36.6272 45.6276 40.886 41.7696L33.458 35.484C31.0484 37.3092 28.0532 38.4 24.7952 38.4C18.5528 38.4 13.2524 34.4196 11.2556 28.8648L3.4292 34.8948C7.4012 42.6672 15.4676 48 24.7952 48Z" fill="#4CAF50"/>
<path id="Vector_4" d="M48.3284 19.2996H46.3952V19.2H24.7952V28.8H38.3588C37.4084 31.4844 35.6816 33.7992 33.4544 35.4852C33.4556 35.484 33.4568 35.484 33.458 35.4828L40.886 41.7684C40.3604 42.246 48.7952 36 48.7952 24C48.7952 22.3908 48.6296 20.82 48.3284 19.2996Z" fill="#1976D2"/>
</g>
</g>
</svg>
